Coordinates
version=1
nRows=9
nColumns=24
inDegrees=yes

Units are S.I. units (second, meters, Newtons, ...)
Angles are in degrees.

endheader
time	pelvis_tilt	pelvis_list	pelvis_rotation	pelvis_tx	pelvis_ty	pelvis_tz	hip_flexion_r	hip_adduction_r	hip_rotation_r	knee_angle_r	ankle_angle_r	subtalar_angle_r	mtp_angle_r	hip_flexion_l	hip_adduction_l	hip_rotation_l	knee_angle_l	ankle_angle_l	subtalar_angle_l	mtp_angle_l	lumbar_extension	lumbar_bending	lumbar_rotation
      5.32500000	     15.39784957	     -1.47136878	     13.53981712	      2.30495896	      0.75867076	     -0.24374391	     -8.14442770	      6.87536865	     -2.27240912	    -13.86789317	     24.73399211	      6.80594322	      0.00000000	      8.07664064	     -2.27336094	      2.14863449	    -68.12849018	     18.07824968	     -2.97679533	      0.00000000	    -30.17923699	      6.22894697	     -3.92853917
      5.33000000	     15.51706650	     -1.45068816	     13.09805141	      2.31268863	      0.75898483	     -0.24368651	     -9.11340306	      6.91446124	     -2.01352593	    -13.48675494	     25.15809261	      7.31420988	      0.00000000	      8.79516423	     -2.11212582	      1.58251411	    -67.27825874	     18.73425846	     -3.32290452	      0.00000000	    -30.39978485	      6.09038069	     -3.39334631
      5.33500000	     15.65706498	     -1.38381997	     12.64011639	      2.32041792	      0.75925521	     -0.24363537	    -10.11177761	      6.87921255	     -1.81654383	    -13.11572194	     25.62808032	      7.99244816	      0.00000000	      9.43580157	     -1.92377406	      0.99538985	    -66.29738879	     19.25258416	     -3.68682553	      0.00000000	    -30.65991660	      5.90021728	     -2.86163243
      5.34000000	     15.75798210	     -1.42412278	     12.14914660	      2.32810642	      0.75933613	     -0.24355653	    -11.00342489	      6.92242177	     -1.64067108	    -12.81691325	     26.07268703	      8.60972655	      0.00000000	     10.12391109	     -1.87748844	      0.35616089	    -65.25124227	     19.74354814	     -4.08956697	      0.00000000	    -30.87552905	      5.80418154	     -2.24250155
      5.34500000	     15.87864540	     -1.40840363	     11.63249810	      2.33581051	      0.75938618	     -0.24347830	    -11.92477177	      6.88222394	     -1.48582755	    -12.53642560	     26.56947031	      9.36348436	      0.00000000	     10.71876979	     -1.79358138	     -0.30896311	    -64.06187240	     20.10285811	     -4.47417129	      0.00000000	    -31.12703795	      5.63990526	     -1.61012667
      5.35000000	     16.01884242	     -1.37259142	     11.12721606	      2.34352377	      0.75937178	     -0.24347195	    -12.87287913	      6.79728145	     -1.44083802	    -12.25503961	     27.10496772	     10.23717637	      0.00000000	     11.23936954	     -1.69825999	     -0.96230762	    -62.75161304	     20.39396790	     -4.85897436	      0.00000000	    -31.40513157	      5.47825086	     -1.02552560
      5.35500000	     16.12119700	     -1.48116935	     10.60220422	      2.35118751	      0.75916765	     -0.24340558	    -13.71877887	      6.84664965	     -1.32728664	    -12.03066947	     27.54154278	     10.95099342	      0.00000000	     11.81798705	     -1.79354289	     -1.65764596	    -61.39934120	     20.66478737	     -5.25785690	      0.00000000	    -31.63837461	      5.44158414	     -0.32684525
      5.36000000	     16.27671339	     -1.44830042	     10.07525298	      2.35890066	      0.75899961	     -0.24340907	    -14.67129478	      6.72527409	     -1.34002891	    -11.77581803	     28.10792966	     11.89660829	      0.00000000	     12.22144440	     -1.73223503	     -2.32076466	    -59.86011408	     20.85971657	     -5.58347992	      0.00000000	    -31.94885407	      5.27276180	      0.26338597
      5.36500000	     16.38691045	     -1.54718048	      9.55095943	      2.36657316	      0.75865316	     -0.24338507	    -15.53260526	      6.73192427	     -1.26206219	    -11.55100079	     28.57791883	     12.66605225	      0.00000000	     12.68293885	     -1.82949379	     -2.98148314	    -58.27600093	     21.02858108	     -5.86904130	      0.00000000	    -32.20332802	      5.22165150	      0.96739064
